<mxfile host="app.diagrams.net" agent="Mozilla/5.0 (Windows NT 10.0; Win64; x64) AppleWebKit/537.36 (KHTML, like Gecko) Chrome/132.0.0.0 Safari/537.36 OPR/117.0.0.0" version="26.2.3">
  <diagram name="Page-1" id="NapXdTHSGaCD6bSlKuh5">
    <mxGraphModel dx="1396" dy="777" grid="1" gridSize="10" guides="1" tooltips="1" connect="1" arrows="1" fold="1" page="1" pageScale="1" pageWidth="850" pageHeight="1100" math="0" shadow="0">
      <root>
        <mxCell id="0" />
        <mxCell id="1" parent="0" />
        <mxCell id="meybb4_pzIe_2fTEvy26-1" value="Student" style="shape=umlActor;verticalLabelPosition=bottom;verticalAlign=top;html=1;fillColor=#d5e8d4;strokeColor=#82b366;" parent="1" vertex="1">
          <mxGeometry x="200" y="325" width="30" height="60" as="geometry" />
        </mxCell>
        <mxCell id="meybb4_pzIe_2fTEvy26-16" value="Coach" style="shape=umlActor;verticalLabelPosition=bottom;verticalAlign=top;html=1;fillColor=#e1d5e7;strokeColor=#9673a6;" parent="1" vertex="1">
          <mxGeometry x="900" y="420" width="30" height="60" as="geometry" />
        </mxCell>
        <mxCell id="meybb4_pzIe_2fTEvy26-23" value="Exercise Universe" style="shape=umlFrame;whiteSpace=wrap;html=1;pointerEvents=0;recursiveResize=0;container=1;collapsible=0;width=160;" parent="1" vertex="1">
          <mxGeometry x="305" y="180" width="545" height="550" as="geometry" />
        </mxCell>
        <mxCell id="-E-V_NYg8e3v20F8Hy5V-1" value="Log In" style="ellipse;whiteSpace=wrap;html=1;" parent="meybb4_pzIe_2fTEvy26-23" vertex="1">
          <mxGeometry x="22.5" y="450" width="140" height="70" as="geometry" />
        </mxCell>
        <mxCell id="-E-V_NYg8e3v20F8Hy5V-2" value="View Exercises" style="ellipse;whiteSpace=wrap;html=1;" parent="meybb4_pzIe_2fTEvy26-23" vertex="1">
          <mxGeometry x="145" y="30" width="140" height="70" as="geometry" />
        </mxCell>
        <mxCell id="-E-V_NYg8e3v20F8Hy5V-4" value="&lt;div&gt;Undertake Exercises&lt;/div&gt;" style="ellipse;whiteSpace=wrap;html=1;" parent="meybb4_pzIe_2fTEvy26-23" vertex="1">
          <mxGeometry x="22.5" y="135" width="140" height="70" as="geometry" />
        </mxCell>
        <mxCell id="-E-V_NYg8e3v20F8Hy5V-7" value="Submit Exercises" style="ellipse;whiteSpace=wrap;html=1;" parent="meybb4_pzIe_2fTEvy26-23" vertex="1">
          <mxGeometry x="22.5" y="300" width="140" height="70" as="geometry" />
        </mxCell>
        <mxCell id="-E-V_NYg8e3v20F8Hy5V-8" value="" style="endArrow=block;endFill=0;endSize=12;html=1;rounded=0;" parent="meybb4_pzIe_2fTEvy26-23" source="-E-V_NYg8e3v20F8Hy5V-4" target="-E-V_NYg8e3v20F8Hy5V-7" edge="1">
          <mxGeometry width="160" relative="1" as="geometry">
            <mxPoint x="92.16" y="195" as="sourcePoint" />
            <mxPoint x="92.16" y="290" as="targetPoint" />
          </mxGeometry>
        </mxCell>
        <mxCell id="-E-V_NYg8e3v20F8Hy5V-9" value="" style="endArrow=block;endFill=0;endSize=12;html=1;rounded=0;" parent="meybb4_pzIe_2fTEvy26-23" source="-E-V_NYg8e3v20F8Hy5V-4" target="-E-V_NYg8e3v20F8Hy5V-2" edge="1">
          <mxGeometry width="160" relative="1" as="geometry">
            <mxPoint x="458.7486726404185" y="104.9986768240633" as="sourcePoint" />
            <mxPoint x="460.1733437033557" y="185.00077775168756" as="targetPoint" />
            <Array as="points" />
          </mxGeometry>
        </mxCell>
        <mxCell id="-E-V_NYg8e3v20F8Hy5V-11" value="&lt;b&gt;&amp;lt;&amp;lt;include&amp;gt;&amp;gt;&lt;/b&gt;" style="edgeLabel;html=1;align=center;verticalAlign=middle;resizable=0;points=[];" parent="-E-V_NYg8e3v20F8Hy5V-9" vertex="1" connectable="0">
          <mxGeometry x="-0.15" y="-2" relative="1" as="geometry">
            <mxPoint x="1" y="-1" as="offset" />
          </mxGeometry>
        </mxCell>
        <mxCell id="8ezRTLxsfXkDiDG3Ism4-4" value="Edit Exercises" style="ellipse;whiteSpace=wrap;html=1;" parent="meybb4_pzIe_2fTEvy26-23" vertex="1">
          <mxGeometry x="375" y="450" width="140" height="70" as="geometry" />
        </mxCell>
        <mxCell id="8ezRTLxsfXkDiDG3Ism4-5" value="Create Exercises" style="ellipse;whiteSpace=wrap;html=1;" parent="meybb4_pzIe_2fTEvy26-23" vertex="1">
          <mxGeometry x="195" y="450" width="140" height="70" as="geometry" />
        </mxCell>
        <mxCell id="P74kI6D_450nAvbk2AaQ-1" value="&lt;div&gt;Review Submitted Exercises&lt;/div&gt;" style="ellipse;whiteSpace=wrap;html=1;" vertex="1" parent="meybb4_pzIe_2fTEvy26-23">
          <mxGeometry x="145" y="220" width="140" height="70" as="geometry" />
        </mxCell>
        <mxCell id="P74kI6D_450nAvbk2AaQ-2" value="" style="endArrow=block;endFill=0;endSize=12;html=1;rounded=0;" edge="1" parent="meybb4_pzIe_2fTEvy26-23" source="P74kI6D_450nAvbk2AaQ-1" target="-E-V_NYg8e3v20F8Hy5V-2">
          <mxGeometry width="160" relative="1" as="geometry">
            <mxPoint x="276.25" y="195" as="sourcePoint" />
            <mxPoint x="346.25" y="239" as="targetPoint" />
            <Array as="points" />
          </mxGeometry>
        </mxCell>
        <mxCell id="P74kI6D_450nAvbk2AaQ-3" value="&lt;b&gt;&amp;lt;&amp;lt;include&amp;gt;&amp;gt;&lt;/b&gt;" style="edgeLabel;html=1;align=center;verticalAlign=middle;resizable=0;points=[];" vertex="1" connectable="0" parent="P74kI6D_450nAvbk2AaQ-2">
          <mxGeometry x="-0.15" y="-2" relative="1" as="geometry">
            <mxPoint x="1" y="-1" as="offset" />
          </mxGeometry>
        </mxCell>
        <mxCell id="meybb4_pzIe_2fTEvy26-37" value="" style="endArrow=none;startArrow=none;endFill=0;startFill=0;endSize=8;html=1;verticalAlign=bottom;labelBackgroundColor=none;strokeWidth=3;rounded=0;fillColor=#d5e8d4;strokeColor=#82b366;" parent="1" source="meybb4_pzIe_2fTEvy26-1" target="-E-V_NYg8e3v20F8Hy5V-1" edge="1">
          <mxGeometry width="160" relative="1" as="geometry">
            <mxPoint x="185" y="530" as="sourcePoint" />
            <mxPoint x="329.66580756578423" y="412.5642677758108" as="targetPoint" />
            <Array as="points" />
          </mxGeometry>
        </mxCell>
        <mxCell id="-E-V_NYg8e3v20F8Hy5V-3" value="" style="endArrow=none;startArrow=none;endFill=0;startFill=0;endSize=8;html=1;verticalAlign=bottom;labelBackgroundColor=none;strokeWidth=3;rounded=0;fillColor=#e1d5e7;strokeColor=#9673a6;" parent="1" source="-E-V_NYg8e3v20F8Hy5V-1" target="meybb4_pzIe_2fTEvy26-16" edge="1">
          <mxGeometry width="160" relative="1" as="geometry">
            <mxPoint x="600.36" y="790.32" as="sourcePoint" />
            <mxPoint x="1000.4" y="751.32" as="targetPoint" />
            <Array as="points" />
          </mxGeometry>
        </mxCell>
        <mxCell id="-E-V_NYg8e3v20F8Hy5V-5" value="" style="endArrow=none;startArrow=none;endFill=0;startFill=0;endSize=8;html=1;verticalAlign=bottom;labelBackgroundColor=none;strokeWidth=3;rounded=0;fillColor=#e1d5e7;strokeColor=#9673a6;" parent="1" source="meybb4_pzIe_2fTEvy26-16" target="-E-V_NYg8e3v20F8Hy5V-2" edge="1">
          <mxGeometry width="160" relative="1" as="geometry">
            <mxPoint x="842.4" y="524.32" as="sourcePoint" />
            <mxPoint x="579.999097487194" y="384.9977227507764" as="targetPoint" />
            <Array as="points" />
          </mxGeometry>
        </mxCell>
        <mxCell id="-E-V_NYg8e3v20F8Hy5V-6" value="" style="endArrow=none;startArrow=none;endFill=0;startFill=0;endSize=8;html=1;verticalAlign=bottom;labelBackgroundColor=none;strokeWidth=3;rounded=0;fillColor=#d5e8d4;strokeColor=#82b366;" parent="1" source="meybb4_pzIe_2fTEvy26-1" target="-E-V_NYg8e3v20F8Hy5V-4" edge="1">
          <mxGeometry width="160" relative="1" as="geometry">
            <mxPoint x="459" y="717" as="sourcePoint" />
            <mxPoint x="590" y="518" as="targetPoint" />
            <Array as="points" />
          </mxGeometry>
        </mxCell>
        <mxCell id="-E-V_NYg8e3v20F8Hy5V-13" value="" style="endArrow=none;startArrow=none;endFill=0;startFill=0;endSize=8;html=1;verticalAlign=bottom;labelBackgroundColor=none;strokeWidth=3;rounded=0;fillColor=#d5e8d4;strokeColor=#82b366;" parent="1" source="meybb4_pzIe_2fTEvy26-1" target="-E-V_NYg8e3v20F8Hy5V-2" edge="1">
          <mxGeometry width="160" relative="1" as="geometry">
            <mxPoint x="290" y="448" as="sourcePoint" />
            <mxPoint x="375" y="435" as="targetPoint" />
            <Array as="points" />
          </mxGeometry>
        </mxCell>
        <mxCell id="8ezRTLxsfXkDiDG3Ism4-1" value="" style="endArrow=none;startArrow=none;endFill=0;startFill=0;endSize=8;html=1;verticalAlign=bottom;labelBackgroundColor=none;strokeWidth=3;rounded=0;fillColor=#d5e8d4;strokeColor=#82b366;" parent="1" source="meybb4_pzIe_2fTEvy26-1" target="-E-V_NYg8e3v20F8Hy5V-7" edge="1">
          <mxGeometry width="160" relative="1" as="geometry">
            <mxPoint x="287" y="515" as="sourcePoint" />
            <mxPoint x="383" y="765" as="targetPoint" />
            <Array as="points" />
          </mxGeometry>
        </mxCell>
        <mxCell id="8ezRTLxsfXkDiDG3Ism4-2" value="" style="endArrow=none;startArrow=none;endFill=0;startFill=0;endSize=8;html=1;verticalAlign=bottom;labelBackgroundColor=none;strokeWidth=3;rounded=0;fillColor=#e1d5e7;strokeColor=#9673a6;" parent="1" source="meybb4_pzIe_2fTEvy26-16" target="-E-V_NYg8e3v20F8Hy5V-7" edge="1">
          <mxGeometry width="160" relative="1" as="geometry">
            <mxPoint x="952.4" y="515.32" as="sourcePoint" />
            <mxPoint x="602.86" y="660.32" as="targetPoint" />
            <Array as="points" />
          </mxGeometry>
        </mxCell>
        <mxCell id="8ezRTLxsfXkDiDG3Ism4-3" value="Editor" style="shape=umlActor;verticalLabelPosition=bottom;verticalAlign=top;html=1;fillColor=#f8cecc;strokeColor=#b85450;" parent="1" vertex="1">
          <mxGeometry x="680" y="740" width="30" height="60" as="geometry" />
        </mxCell>
        <mxCell id="8ezRTLxsfXkDiDG3Ism4-7" value="" style="endArrow=none;startArrow=none;endFill=0;startFill=0;endSize=8;html=1;verticalAlign=bottom;labelBackgroundColor=none;strokeWidth=3;rounded=0;fillColor=#f8cecc;strokeColor=#b85450;" parent="1" source="8ezRTLxsfXkDiDG3Ism4-5" target="8ezRTLxsfXkDiDG3Ism4-3" edge="1">
          <mxGeometry width="160" relative="1" as="geometry">
            <mxPoint x="1135" y="300" as="sourcePoint" />
            <mxPoint x="740" y="170" as="targetPoint" />
            <Array as="points" />
          </mxGeometry>
        </mxCell>
        <mxCell id="8ezRTLxsfXkDiDG3Ism4-8" value="" style="endArrow=none;startArrow=none;endFill=0;startFill=0;endSize=8;html=1;verticalAlign=bottom;labelBackgroundColor=none;strokeWidth=3;rounded=0;fillColor=#f8cecc;strokeColor=#b85450;" parent="1" source="8ezRTLxsfXkDiDG3Ism4-4" target="8ezRTLxsfXkDiDG3Ism4-3" edge="1">
          <mxGeometry width="160" relative="1" as="geometry">
            <mxPoint x="1012" y="455.32" as="sourcePoint" />
            <mxPoint x="800" y="175.14378854625562" as="targetPoint" />
            <Array as="points" />
          </mxGeometry>
        </mxCell>
        <mxCell id="8ezRTLxsfXkDiDG3Ism4-9" value="" style="endArrow=none;startArrow=none;endFill=0;startFill=0;endSize=8;html=1;verticalAlign=bottom;labelBackgroundColor=none;strokeWidth=3;rounded=0;fillColor=#f8cecc;strokeColor=#b85450;" parent="1" source="P74kI6D_450nAvbk2AaQ-1" target="8ezRTLxsfXkDiDG3Ism4-3" edge="1">
          <mxGeometry width="160" relative="1" as="geometry">
            <mxPoint x="615" y="293" as="sourcePoint" />
            <mxPoint x="670" y="228" as="targetPoint" />
            <Array as="points" />
          </mxGeometry>
        </mxCell>
        <mxCell id="8ezRTLxsfXkDiDG3Ism4-10" value="" style="endArrow=none;startArrow=none;endFill=0;startFill=0;endSize=8;html=1;verticalAlign=bottom;labelBackgroundColor=none;strokeWidth=3;rounded=0;fillColor=#f8cecc;strokeColor=#b85450;" parent="1" source="-E-V_NYg8e3v20F8Hy5V-1" target="8ezRTLxsfXkDiDG3Ism4-3" edge="1">
          <mxGeometry width="160" relative="1" as="geometry">
            <mxPoint x="449" y="393" as="sourcePoint" />
            <mxPoint x="760" y="877" as="targetPoint" />
            <Array as="points" />
          </mxGeometry>
        </mxCell>
        <mxCell id="P74kI6D_450nAvbk2AaQ-4" value="" style="endArrow=none;startArrow=none;endFill=0;startFill=0;endSize=8;html=1;verticalAlign=bottom;labelBackgroundColor=none;strokeWidth=3;rounded=0;fillColor=#d5e8d4;strokeColor=#82b366;" edge="1" parent="1" source="meybb4_pzIe_2fTEvy26-1" target="P74kI6D_450nAvbk2AaQ-1">
          <mxGeometry width="160" relative="1" as="geometry">
            <mxPoint x="60" y="336" as="sourcePoint" />
            <mxPoint x="334" y="340" as="targetPoint" />
            <Array as="points" />
          </mxGeometry>
        </mxCell>
        <mxCell id="P74kI6D_450nAvbk2AaQ-5" value="" style="endArrow=none;startArrow=none;endFill=0;startFill=0;endSize=8;html=1;verticalAlign=bottom;labelBackgroundColor=none;strokeWidth=3;rounded=0;fillColor=#e1d5e7;strokeColor=#9673a6;" edge="1" parent="1" source="meybb4_pzIe_2fTEvy26-16" target="P74kI6D_450nAvbk2AaQ-1">
          <mxGeometry width="160" relative="1" as="geometry">
            <mxPoint x="880" y="582" as="sourcePoint" />
            <mxPoint x="654" y="455" as="targetPoint" />
            <Array as="points" />
          </mxGeometry>
        </mxCell>
      </root>
    </mxGraphModel>
  </diagram>
</mxfile>
